<svg width="60" height="60" viewBox="0 0 60 60" fill="none" xmlns="http://www.w3.org/2000/svg">
<g id="tick 1">
<g id="Group">
<g id="Group_2">
<path id="Vector" d="M49.318 10.9586L49.3179 10.9587L20.7807 39.4962L10.6821 29.3977C10.6821 29.3976 10.682 29.3976 10.682 29.3976C8.92452 27.64 6.07549 27.6405 4.3182 29.3975L4.31813 29.3975C2.56058 31.1549 2.56069 34.0041 4.31806 35.7615L4.31807 35.7615L17.5985 49.0417C17.5986 49.0418 17.5986 49.0418 17.5987 49.0419C19.3563 50.7998 22.2066 50.798 23.9627 49.0419L55.6818 17.3227C55.6819 17.3227 55.6819 17.3227 55.6819 17.3226C57.4395 15.5652 57.4391 12.716 55.682 10.9588C53.9246 9.20117 51.0754 9.20137 49.318 10.9586Z" fill="white" stroke="white" stroke-width="4"/>
</g>
</g>
</g>
</svg>
